{"title":"BOSS ENGIRA BASKARAN (2010)-Ice-Team","uid":5839997,"size":793927159,"categoryP":"video","categoryS":"movies","magnet":"?xt=urn:btih:b73695ea379485b74dc50712a985b00cc28c7304&amp;dn=BOSS+ENGIRA+BASKARAN+%282010%29-Ice-Team&amp;tr=udp%3A%2F%2Ftracker.openbittorrent.com%3A80&amp;tr=udp%3A%2F%2Fopen.demonii.com%3A1337&amp;tr=udp%3A%2F%2Ftracker.coppersurfer.tk%3A6969&amp;tr=udp%3A%2F%2Fexodus.desync.com%3A6969","seeders":0,"leechers":0,"uploader":"Ice-team","files":1,"time":1284907516,"description":"Format                           : MPEG-4\nFormat profile                   : Sony PSP\nCodec ID                         : MSNV\nFile size                        : 757 MiB\nDuration                         : 2h 38mn\nOverall bit rate                 : 669 Kbps\nEncoded date                     : UTC 1970-01-01 00:00:00\nTagged date                      : UTC 1970-01-01 00:00:00\n\nVideo\nID                               : 1\nFormat                           : MPEG-4 Visual\nFormat profile                   : Simple@L1\nFormat settings, BVOP            : No\nFormat settings, QPel            : No\nFormat settings, GMC             : No warppoints\nFormat settings, Matrix          : Default (H.263)\nCodec ID                         : 20\nDuration                         : 2h 38mn\nBit rate mode                    : Variable\nBit rate                         : 615 Kbps\nWidth                            : 720 pixels\nHeight                           : 346 pixels\nDisplay aspect ratio             : 2.081\nFrame rate mode                  : Constant\nFrame rate                       : 29.970 fps\nResolution                       : 24 bits\nColorimetry                      : 4:2:0\nScan type                        : Progressive\nBits/(Pixel*Frame)               : 0.082\nStream size                      : 696 MiB (92%)\nWriting library                  : Lavc52.10.0\nEncoded date                     : UTC 1970-01-01 00:00:00\nTagged date                      : UTC 1970-01-01 00:00:00\n\nAudio\nID                               : 2\nFormat                           : AAC\nFormat/Info                      : Advanced Audio Codec\nFormat version                   : Version 4\nFormat profile                   : LC\nFormat settings, SBR             : Yes\nFormat settings, PS              : No\nCodec ID                         : 40\nDuration                         : 2h 38mn\nBit rate mode                    : Variable\nBit rate                         : 51.0 Kbps\nChannel(s)                       : 2 channels\nChannel positions                : L R\nSampling rate                    : 48.0 KHz\nResolution                       : 16 bits\nStream size                      : 57.7 MiB (8%)\nEncoded date                     : UTC 1970-01-01 00:00:00\nTagged date                      : UTC 1970-01-01 00:00:00\n\nScreen Shotz: http://img823.imageshack.us/img823/9377/99987825.jpg","torrent":{"xt":"urn:btih:b73695ea379485b74dc50712a985b00cc28c7304","amp;dn":"BOSS+ENGIRA+BASKARAN+%282010%29-Ice-Team","amp;tr":["udp%3A%2F%2Ftracker.openbittorrent.com%3A80","udp%3A%2F%2Fopen.demonii.com%3A1337","udp%3A%2F%2Ftracker.coppersurfer.tk%3A6969","udp%3A%2F%2Fexodus.desync.com%3A6969"],"infoHash":"b73695ea379485b74dc50712a985b00cc28c7304","infoHashBuffer":{"type":"Buffer","data":[183,54,149,234,55,148,133,183,77,197,7,18,169,133,176,12,194,140,115,4]},"announce":[],"urlList":[]}}